<svg xmlns="http://www.w3.org/2000/svg" xmlns:xlink="http://www.w3.org/1999/xlink" width="500" zoomAndPan="magnify" viewBox="0 0 375 374.999991" height="500" preserveAspectRatio="xMidYMid meet" version="1.0"><defs><g/><clipPath id="2477fff6b4"><path d="M 99 46 L 318 46 L 318 306 L 99 306 Z M 99 46 " clip-rule="nonzero"/></clipPath><clipPath id="24d86bad17"><path d="M 80.082031 67.957031 L 290.859375 37.269531 L 327.921875 291.835938 L 117.144531 322.523438 Z M 80.082031 67.957031 " clip-rule="nonzero"/></clipPath><clipPath id="50f1a7ffd0"><path d="M 80.082031 67.957031 L 290.859375 37.269531 L 327.921875 291.835938 L 117.144531 322.523438 Z M 80.082031 67.957031 " clip-rule="nonzero"/></clipPath><clipPath id="d9b8a4c434"><path d="M 80.082031 67.964844 L 290.742188 37.292969 L 327.800781 291.855469 L 117.144531 322.523438 Z M 80.082031 67.964844 " clip-rule="nonzero"/></clipPath></defs><g fill="#8aaae5" fill-opacity="1"><g transform="translate(111.976409, 311.528291)"><g><path d="M -6.125 -101.46875 C 0.269531 -83.082031 9.328125 -67.226562 21.046875 -53.90625 C 32.765625 -40.582031 46.195312 -30.679688 61.34375 -24.203125 C 76.488281 -17.722656 92.125 -15.234375 108.25 -16.734375 C 115.332031 -17.398438 122.820312 -18.960938 130.71875 -21.421875 C 138.625 -23.890625 145.945312 -27.285156 152.6875 -31.609375 C 159.425781 -35.941406 164.890625 -41.441406 169.078125 -48.109375 C 173.265625 -54.785156 175.046875 -62.773438 174.421875 -72.078125 C 173.898438 -83.117188 169.929688 -92.664062 162.515625 -100.71875 C 155.097656 -108.78125 146.554688 -114.453125 136.890625 -117.734375 C 126.179688 -121.679688 114.847656 -124.328125 102.890625 -125.671875 C 90.929688 -127.023438 78.847656 -128.425781 66.640625 -129.875 C 54.429688 -131.332031 42.609375 -133.863281 31.171875 -137.46875 C 24.304688 -139.789062 17.304688 -142.835938 10.171875 -146.609375 C 3.046875 -150.378906 -3.070312 -155.289062 -8.1875 -161.34375 C -13.3125 -167.394531 -16.273438 -174.695312 -17.078125 -183.25 C -17.878906 -191.8125 -16.523438 -199.765625 -13.015625 -207.109375 C -9.503906 -214.453125 -4.820312 -221.046875 1.03125 -226.890625 C 6.894531 -232.734375 12.851562 -237.546875 18.90625 -241.328125 C 27.539062 -246.566406 36.820312 -250.753906 46.75 -253.890625 C 56.6875 -257.035156 66.910156 -259.097656 77.421875 -260.078125 C 96.234375 -261.828125 114.832031 -260.601562 133.21875 -256.40625 C 151.601562 -252.207031 167.894531 -245.347656 182.09375 -235.828125 L 171.84375 -199.015625 C 157.957031 -215.703125 144.671875 -228.632812 131.984375 -237.8125 C 119.304688 -246.988281 104.914062 -252.054688 88.8125 -253.015625 C 76.40625 -253.828125 64.039062 -252.238281 51.71875 -248.25 C 39.40625 -244.269531 29.039062 -237.207031 20.625 -227.0625 C 12.457031 -216.6875 9.882812 -206.523438 12.90625 -196.578125 C 15.9375 -186.628906 24.125 -178.828125 37.46875 -173.171875 C 47.96875 -168.972656 59.332031 -166.03125 71.5625 -164.34375 C 83.789062 -162.65625 96.253906 -161.109375 108.953125 -159.703125 C 121.660156 -158.296875 133.710938 -155.960938 145.109375 -152.703125 C 156.503906 -149.453125 166.492188 -144.035156 175.078125 -136.453125 C 182.597656 -129.773438 188.0625 -121.351562 191.46875 -111.1875 C 194.882812 -101.03125 196.238281 -90.5 195.53125 -79.59375 C 194.820312 -68.6875 191.910156 -58.925781 186.796875 -50.3125 C 181.703125 -41.695312 174.789062 -34.578125 166.0625 -28.953125 C 157.34375 -23.335938 147.882812 -19.007812 137.6875 -15.96875 C 127.5 -12.925781 117.273438 -10.925781 107.015625 -9.96875 C 86.984375 -8.101562 67.503906 -9.492188 48.578125 -14.140625 C 29.660156 -18.785156 12.269531 -26.898438 -3.59375 -38.484375 L -9.421875 -101.15625 Z M -6.125 -101.46875 "/></g></g></g><g clip-path="url(#2477fff6b4)"><g clip-path="url(#24d86bad17)"><g clip-path="url(#50f1a7ffd0)"><g clip-path="url(#d9b8a4c434)"><path fill="#ffffff" d="M 167.03125 223.304688 C 179.707031 223.453125 192.761719 222.878906 204.875 227.308594 C 211.949219 229.894531 223.089844 236.804688 219.78125 246.160156 C 218.871094 248.742188 216.121094 250.152344 213.625 250.878906 C 209.507812 252.070312 205.058594 251.410156 201.03125 250.199219 C 186.945312 245.964844 175.257812 234.601562 166.40625 223.296875 C 166.613281 223.300781 166.824219 223.300781 167.03125 223.304688 C 170.378906 223.34375 166.824219 223.304688 167.03125 223.304688 Z M 314.597656 204.492188 C 311.476562 192.195312 305.488281 180.632812 297.570312 170.742188 C 286.6875 157.152344 272.730469 147.472656 258.097656 138.3125 C 242.863281 128.773438 226.640625 119.792969 215.308594 105.453125 C 208.917969 97.367188 204.003906 87.121094 206.191406 76.605469 C 207.664062 69.527344 211.589844 63.023438 217.820312 59.179688 C 225.734375 54.296875 235.441406 54.519531 242.996094 59.6875 C 251.074219 65.214844 258.890625 77.441406 270.214844 73.71875 C 258.625 73.257812 254.214844 60.113281 246.445312 53.480469 C 242.988281 50.53125 238.929688 48.457031 234.5 47.460938 C 216.402344 43.386719 200.4375 56.921875 196.300781 73.898438 C 191.679688 92.859375 203.507812 110.96875 216.835938 123.335938 C 230.710938 136.214844 247.660156 145.054688 263.0625 155.886719 C 274.375 163.835938 284.71875 173.003906 292.222656 184.769531 C 300.804688 198.226562 305.339844 214.097656 303.941406 230.113281 C 302.144531 250.667969 290.460938 269.066406 272.988281 279.882812 C 256.746094 289.9375 236.945312 292.996094 218.117188 291.480469 C 180.757812 288.46875 147.019531 265.453125 126.621094 234.582031 C 123.324219 229.589844 120.375 224.382812 117.808594 218.980469 C 124.808594 220.394531 131.882812 221.402344 138.992188 222.066406 C 142.511719 222.394531 146.039062 222.636719 149.574219 222.816406 C 150.382812 222.855469 151.164062 222.753906 151.746094 223.21875 C 152.25 223.625 152.648438 224.542969 153.019531 225.078125 C 154.019531 226.507812 155.050781 227.910156 156.105469 229.296875 C 164.28125 240.007812 174.195312 249.8125 186.007812 256.453125 C 194.101562 261 203.609375 264.320312 213.003906 263.042969 C 220.226562 262.0625 227.589844 258.113281 230.519531 251.132812 C 233.996094 242.855469 231.285156 233.355469 225.511719 226.847656 C 220.496094 221.191406 213.5 217.554688 206.363281 215.324219 C 198.84375 212.972656 190.960938 212.003906 183.113281 211.664062 C 180.976562 211.574219 178.832031 211.554688 176.691406 211.550781 C 173.238281 211.539062 169.785156 211.523438 166.335938 211.480469 C 164.554688 211.460938 162.773438 211.429688 160.992188 211.390625 C 160.292969 211.378906 159.1875 211.5625 158.535156 211.332031 C 157.726562 211.050781 157.511719 210.316406 157.019531 209.476562 C 146.757812 191.992188 140.402344 172.332031 137.636719 152.289062 C 137.167969 148.867188 136.808594 145.429688 136.539062 141.988281 C 149.746094 151.503906 165.058594 157.117188 180.695312 161.207031 C 200.957031 166.503906 222.175781 170.046875 240.730469 180.21875 C 255.683594 188.417969 268.65625 200.996094 273.707031 217.640625 C 269.261719 187.386719 239.800781 170.324219 213.570312 161.0625 C 191.09375 153.121094 166.945312 148.65625 146.921875 135.007812 C 138.472656 129.25 131.429688 122.699219 125.527344 114.601562 C 119.265625 157.898438 137.488281 198.824219 144.121094 210.636719 C 126.367188 210.589844 109.046875 207.441406 99.484375 201.222656 C 102.589844 222.558594 116.097656 243.574219 127.269531 256.445312 C 144.683594 276.503906 166.800781 292.1875 192.183594 300.121094 C 203.921875 303.789062 216.308594 305.359375 228.589844 305.25 C 251.703125 305.039062 275.078125 297.875 292.273438 281.964844 C 310.613281 265 319.609375 239.878906 316.601562 215.097656 C 316.167969 211.523438 315.503906 207.976562 314.597656 204.492188 " fill-opacity="1" fill-rule="nonzero"/></g></g></g></g></svg>